Radio-Canada-Light.ufo
<glyph name="quotesingle" format="2">
	<advance width="206"/>
	<unicode hex="0027"/>
	<outline>
		<contour>
			<point x="70" y="720" type="line"/>
			<point x="81" y="500" type="line"/>
			<point x="126" y="500" type="line"/>
			<point x="136" y="720" type="line"/>
		</contour>
	</outline>
</glyph>
<glyph name="hyphen" format="2">
	<advance width="382"/>
	<unicode hex="002D"/>
	<outline>
		<contour>
			<point x="75" y="250" type="line"/>
			<point x="307" y="250" type="line"/>
			<point x="307" y="300" type="line"/>
			<point x="75" y="300" type="line"/>
		</contour>
	</outline>
</glyph>
<glyph name="eight" format="2">
	<advance width="600"/>
	<unicode hex="0038"/>
	<outline>
		<contour>
			<point x="68" y="172" type="curve"/>
			<point x="68" y="66"/>
			<point x="156" y="-8"/>
			<point x="296" y="-8" type="curve" smooth="yes"/>
			<point x="448" y="-8"/>
			<point x="532" y="73"/>
			<point x="532" y="171" type="curve" smooth="yes"/>
			<point x="532" y="259"/>
			<point x="476" y="332"/>
			<point x="311" y="386" type="curve" smooth="yes"/>
			<point x="186" y="427"/>
			<point x="146" y="474"/>
			<point x="146" y="531" type="curve"/>
			<point x="146" y="587"/>
			<point x="204" y="644"/>
			<point x="302" y="644" type="curve" smooth="yes"/>
			<point x="391" y="644"/>
			<point x="450" y="586"/>
			<point x="450" y="525" type="curve"/>
			<point x="450" y="470"/>
			<point x="408" y="412"/>
			<point x="303" y="383" type="curve"/>
			<point x="343" y="357" type="line"/>
			<point x="459" y="385"/>
			<point x="507" y="453"/>
			<point x="507" y="532" type="curve"/>
			<point x="507" y="624"/>
			<point x="419" y="698"/>
			<point x="302" y="698" type="curve" smooth="yes"/>
			<point x="175" y="698"/>
			<point x="90" y="619"/>
			<point x="90" y="529" type="curve"/>
			<point x="90" y="444"/>
			<point x="146" y="382"/>
			<point x="291" y="331" type="curve" smooth="yes"/>
			<point x="433" y="281"/>
			<point x="472" y="232"/>
			<point x="472" y="169" type="curve" smooth="yes"/>
			<point x="472" y="106"/>
			<point x="414" y="46"/>
			<point x="296" y="46" type="curve" smooth="yes"/>
			<point x="193" y="46"/>
			<point x="125" y="103"/>
			<point x="125" y="178" type="curve"/>
			<point x="125" y="237"/>
			<point x="181" y="302"/>
			<point x="286" y="337" type="curve"/>
			<point x="246" y="363" type="line"/>
			<point x="129" y="330"/>
			<point x="68" y="258"/>
		</contour>
	</outline>
</glyph>
<glyph name="semicolon" format="2">
	<advance width="216"/>
	<unicode hex="003B"/>
	<outline>
		<contour>
			<point x="64" y="-134" type="line"/>
			<point x="104" y="-134" type="line"/>
			<point x="141" y="-18" type="line" smooth="yes"/>
			<point x="147" y="0"/>
			<point x="151" y="16"/>
			<point x="151" y="33" type="curve" smooth="yes"/>
			<point x="151" y="61"/>
			<point x="133" y="81"/>
			<point x="108" y="81" type="curve" smooth="yes"/>
			<point x="84" y="81"/>
			<point x="65" y="61"/>
			<point x="65" y="36" type="curve" smooth="yes"/>
			<point x="65" y="15"/>
			<point x="77" y="1"/>
			<point x="93" y="-5" type="curve"/>
		</contour>
		<contour>
			<point x="65" y="473" type="curve" smooth="yes"/>
			<point x="65" y="449"/>
			<point x="84" y="429"/>
			<point x="108" y="429" type="curve" smooth="yes"/>
			<point x="133" y="429"/>
			<point x="151" y="449"/>
			<point x="151" y="473" type="curve" smooth="yes"/>
			<point x="151" y="498"/>
			<point x="133" y="518"/>
			<point x="108" y="518" type="curve" smooth="yes"/>
			<point x="84" y="518"/>
			<point x="65" y="498"/>
		</contour>
	</outline>
</glyph>
<glyph name="B" format="2">
	<advance width="621"/>
	<unicode hex="0042"/>
	<outline>
		<contour>
			<point x="110" y="0" type="line"/>
			<point x="172" y="0" type="line"/>
			<point x="172" y="690" type="line"/>
			<point x="110" y="690" type="line"/>
		</contour>
		<contour>
			<point x="140" y="0" type="line"/>
			<point x="324" y="0" type="line" smooth="yes"/>
			<point x="453" y="0"/>
			<point x="551" y="70"/>
			<point x="551" y="187" type="curve" smooth="yes"/>
			<point x="551" y="303"/>
			<point x="453" y="370"/>
			<point x="324" y="370" type="curve" smooth="yes"/>
			<point x="140" y="370" type="line"/>
			<point x="140" y="330" type="line"/>
			<point x="319" y="330" type="line" smooth="yes"/>
			<point x="421" y="330"/>
			<point x="487" y="280"/>
			<point x="487" y="192" type="curve" smooth="yes"/>
			<point x="487" y="104"/>
			<point x="421" y="54"/>
			<point x="319" y="54" type="curve" smooth="yes"/>
			<point x="140" y="54" type="line"/>
		</contour>
		<contour>
			<point x="140" y="340" type="line"/>
			<point x="304" y="340" type="line" smooth="yes"/>
			<point x="430" y="340"/>
			<point x="526" y="403"/>
			<point x="526" y="513" type="curve" smooth="yes"/>
			<point x="526" y="624"/>
			<point x="430" y="690"/>
			<point x="304" y="690" type="curve" smooth="yes"/>
			<point x="140" y="690" type="line"/>
			<point x="140" y="636" type="line"/>
			<point x="299" y="636" type="line" smooth="yes"/>
			<point x="398" y="636"/>
			<point x="462" y="590"/>
			<point x="462" y="508" type="curve" smooth="yes"/>
			<point x="462" y="426"/>
			<point x="398" y="380"/>
			<point x="299" y="380" type="curve" smooth="yes"/>
			<point x="140" y="380" type="line"/>
		</contour>
	</outline>
</glyph>
<glyph name="F" format="2">
	<advance width="558"/>
	<unicode hex="0046"/>
	<outline>
		<contour>
			<point x="110" y="0" type="line"/>
			<point x="172" y="0" type="line"/>
			<point x="172" y="690" type="line"/>
			<point x="110" y="690" type="line"/>
		</contour>
		<contour>
			<point x="140" y="301" type="line"/>
			<point x="470" y="301" type="line"/>
			<point x="470" y="355" type="line"/>
			<point x="140" y="355" type="line"/>
		</contour>
		<contour>
			<point x="140" y="636" type="line"/>
			<point x="508" y="636" type="line"/>
			<point x="508" y="690" type="line"/>
			<point x="140" y="690" type="line"/>
		</contour>
	</outline>
</glyph>
<glyph name="G" format="2">
	<advance width="677"/>
	<unicode hex="0047"/>
	<anchor x="361" y="690" name="top"/>
	<anchor x="361" y="0" name="bottom"/>
	<outline>
		<contour>
			<point x="70" y="345" type="curve" smooth="yes"/>
			<point x="70" y="112"/>
			<point x="206" y="-8"/>
			<point x="375" y="-8" type="curve" smooth="yes"/>
			<point x="454" y="-8"/>
			<point x="536" y="25"/>
			<point x="592" y="87" type="curve"/>
			<point x="544" y="117" type="line"/>
			<point x="502" y="69"/>
			<point x="436" y="47"/>
			<point x="375" y="47" type="curve" smooth="yes"/>
			<point x="239" y="47"/>
			<point x="134" y="148"/>
			<point x="134" y="345" type="curve" smooth="yes"/>
			<point x="134" y="542"/>
			<point x="241" y="641"/>
			<point x="371" y="641" type="curve" smooth="yes"/>
			<point x="434" y="641"/>
			<point x="489" y="618"/>
			<point x="531" y="570" type="curve"/>
			<point x="575" y="610" type="line"/>
			<point x="519" y="671"/>
			<point x="452" y="698"/>
			<point x="371" y="698" type="curve" smooth="yes"/>
			<point x="208" y="698"/>
			<point x="70" y="578"/>
		</contour>
		<contour>
			<point x="379" y="276" type="line"/>
			<point x="562" y="276" type="line"/>
			<point x="562" y="330" type="line"/>
			<point x="379" y="330" type="line"/>
		</contour>
		<contour>
			<point x="530" y="87" type="line"/>
			<point x="592" y="87" type="line"/>
			<point x="592" y="330" type="line"/>
			<point x="530" y="330" type="line"/>
		</contour>
	</outline>
</glyph>
<glyph name="K" format="2">
	<advance width="615"/>
	<unicode hex="004B"/>
	<anchor x="340" y="0" name="bottom"/>
	<outline>
		<contour>
			<point x="110" y="0" type="line"/>
			<point x="172" y="0" type="line"/>
			<point x="172" y="690" type="line"/>
			<point x="110" y="690" type="line"/>
		</contour>
		<contour>
			<point x="166" y="216" type="line"/>
			<point x="287" y="357" type="line"/>
			<point x="294" y="365" type="line"/>
			<point x="573" y="690" type="line"/>
			<point x="498" y="690" type="line"/>
			<point x="166" y="299" type="line"/>
		</contour>
		<contour>
			<point x="262" y="348" type="line"/>
			<point x="512" y="0" type="line"/>
			<point x="590" y="0" type="line"/>
			<point x="302" y="392" type="line"/>
		</contour>
	</outline>
</glyph>
<glyph name="O" format="2">
	<advance width="716"/>
	<unicode hex="004F"/>
	<anchor x="358" y="690" name="top"/>
	<anchor x="358" y="0" name="bottom"/>
	<anchor x="400" y="0" name="ogonek"/>
	<anchor x="420" y="690" name="horn"/>
	<outline>
		<contour>
			<point x="70" y="345" type="curve" smooth="yes"/>
			<point x="70" y="112"/>
			<point x="200" y="-8"/>
			<point x="358" y="-8" type="curve" smooth="yes"/>
			<point x="516" y="-8"/>
			<point x="646" y="112"/>
			<point x="646" y="345" type="curve" smooth="yes"/>
			<point x="646" y="578"/>
			<point x="516" y="698"/>
			<point x="358" y="698" type="curve" smooth="yes"/>
			<point x="200" y="698"/>
			<point x="70" y="578"/>
		</contour>
		<contour>
			<point x="134" y="345" type="curve" smooth="yes"/>
			<point x="134" y="542"/>
			<point x="233" y="641"/>
			<point x="358" y="641" type="curve" smooth="yes"/>
			<point x="483" y="641"/>
			<point x="582" y="542"/>
			<point x="582" y="345" type="curve" smooth="yes"/>
			<point x="582" y="148"/>
			<point x="483" y="49"/>
			<point x="358" y="49" type="curve" smooth="yes"/>
			<point x="233" y="49"/>
			<point x="134" y="148"/>
		</contour>
	</outline>
</glyph>
<glyph name="V" format="2">
	<advance width="582"/>
	<unicode hex="0056"/>
	<outline>
		<contour>
			<point x="20" y="690" type="line"/>
			<point x="265" y="0" type="line"/>
			<point x="309" y="0" type="line"/>
			<point x="307" y="45" type="line"/>
			<point x="85" y="690" type="line"/>
		</contour>
		<contour>
			<point x="275" y="45" type="line"/>
			<point x="277" y="0" type="line"/>
			<point x="317" y="0" type="line"/>
			<point x="562" y="690" type="line"/>
			<point x="500" y="690" type="line"/>
		</contour>
	</outline>
</glyph>
<glyph name="W" format="2">
	<advance width="877"/>
	<unicode hex="0057"/>
	<anchor x="438" y="690" name="top"/>
	<outline>
		<contour>
			<point x="20" y="690" type="line"/>
			<point x="220" y="0" type="line"/>
			<point x="264" y="0" type="line"/>
			<point x="262" y="51" type="line"/>
			<point x="85" y="690" type="line"/>
		</contour>
		<contour>
			<point x="230" y="51" type="line"/>
			<point x="232" y="0" type="line"/>
			<point x="272" y="0" type="line"/>
			<point x="450" y="614" type="line"/>
			<point x="450" y="690" type="line"/>
			<point x="415" y="690" type="line"/>
		</contour>
		<contour>
			<point x="427" y="614" type="line"/>
			<point x="605" y="0" type="line"/>
			<point x="649" y="0" type="line"/>
			<point x="647" y="51" type="line"/>
			<point x="465" y="690" type="line"/>
			<point x="427" y="690" type="line"/>
		</contour>
		<contour>
			<point x="615" y="51" type="line"/>
			<point x="617" y="0" type="line"/>
			<point x="657" y="0" type="line"/>
			<point x="857" y="690" type="line"/>
			<point x="795" y="690" type="line"/>
		</contour>
	</outline>
</glyph>
<glyph name="g" format="2">
	<advance width="556"/>
	<unicode hex="0067"/>
	<anchor x="269" y="510" name="top"/>
	<outline>
		<contour>
			<point x="55" y="255" type="curve" smooth="yes"/>
			<point x="55" y="86.60494"/>
			<point x="140" y="7"/>
			<point x="243" y="7" type="curve" smooth="yes"/>
			<point x="308" y="7"/>
			<point x="377" y="49"/>
			<point x="416" y="104" type="curve"/>
			<point x="416" y="151" type="line"/>
			<point x="373" y="94.84524"/>
			<point x="312" y="62"/>
			<point x="251" y="62" type="curve" smooth="yes"/>
			<point x="180" y="62"/>
			<point x="116" y="118.42487"/>
			<point x="116" y="260" type="curve" smooth="yes"/>
			<point x="116" y="408.3981"/>
			<point x="178" y="466"/>
			<point x="263" y="466" type="curve" smooth="yes"/>
			<point x="341" y="466"/>
			<point x="401" y="413"/>
			<point x="401" y="310" type="curve"/>
			<point x="429" y="320" type="line"/>
			<point x="429" y="448"/>
			<point x="354" y="518"/>
			<point x="259" y="518" type="curve" smooth="yes"/>
			<point x="148" y="518"/>
			<point x="55" y="438.51119"/>
		</contour>
		<contour>
			<point x="85" y="-147" type="line"/>
			<point x="133" y="-175"/>
			<point x="195" y="-193"/>
			<point x="257" y="-193" type="curve" smooth="yes"/>
			<point x="372" y="-193"/>
			<point x="461" y="-120.83607"/>
			<point x="461" y="20" type="curve" smooth="yes"/>
			<point x="461" y="388" type="line"/>
			<point x="461" y="421"/>
			<point x="462" y="442"/>
			<point x="466" y="471" type="curve" smooth="yes"/>
			<point x="472" y="510" type="line"/>
			<point x="417" y="510" type="line"/>
			<point x="401" y="407" type="line"/>
			<point x="401" y="25" type="line" smooth="yes"/>
			<point x="401" y="-92.65414"/>
			<point x="337" y="-138"/>
			<point x="246" y="-138" type="curve" smooth="yes"/>
			<point x="195" y="-138"/>
			<point x="151" y="-124"/>
			<point x="108" y="-97" type="curve"/>
		</contour>
	</outline>
</glyph>
<glyph name="q" format="2">
	<advance width="556"/>
	<unicode hex="0071"/>
	<outline>
		<contour>
			<point x="55" y="250" type="curve" smooth="yes"/>
			<point x="55" y="75"/>
			<point x="140" y="-8"/>
			<point x="243" y="-8" type="curve" smooth="yes"/>
			<point x="308" y="-8"/>
			<point x="377" y="35"/>
			<point x="416" y="93" type="curve"/>
			<point x="416" y="141" type="line"/>
			<point x="373" y="82"/>
			<point x="312" y="47"/>
			<point x="251" y="47" type="curve" smooth="yes"/>
			<point x="180" y="47"/>
			<point x="116" y="106"/>
			<point x="116" y="255" type="curve" smooth="yes"/>
			<point x="116" y="407"/>
			<point x="178" y="466"/>
			<point x="263" y="466" type="curve" smooth="yes"/>
			<point x="341" y="466"/>
			<point x="401" y="413"/>
			<point x="401" y="310" type="curve"/>
			<point x="429" y="320" type="line"/>
			<point x="429" y="448"/>
			<point x="354" y="518"/>
			<point x="259" y="518" type="curve" smooth="yes"/>
			<point x="148" y="518"/>
			<point x="55" y="437"/>
		</contour>
		<contour>
			<point x="401" y="-196" type="line"/>
			<point x="461" y="-182" type="line"/>
			<point x="461" y="388" type="line"/>
			<point x="461" y="421"/>
			<point x="462" y="442"/>
			<point x="466" y="471" type="curve" smooth="yes"/>
			<point x="472" y="510" type="line"/>
			<point x="417" y="510" type="line"/>
			<point x="401" y="407" type="line"/>
		</contour>
	</outline>
</glyph>
<glyph name="t" format="2">
	<advance width="377"/>
	<unicode hex="0074"/>
	<anchor x="220" y="0" name="bottom"/>
	<anchor x="377" y="720" name="caron.alt"/>
	<outline>
		<contour>
			<point x="30" y="460" type="line"/>
			<point x="332" y="460" type="line"/>
			<point x="332" y="510" type="line"/>
			<point x="30" y="510" type="line"/>
		</contour>
		<contour>
			<point x="123" y="135" type="line" smooth="yes"/>
			<point x="123" y="44"/>
			<point x="175" y="-8"/>
			<point x="254" y="-8" type="curve"/>
			<point x="283" y="-8"/>
			<point x="317" y="0"/>
			<point x="342" y="13" type="curve"/>
			<point x="329" y="64" type="line"/>
			<point x="304" y="52"/>
			<point x="280" y="47"/>
			<point x="260" y="47" type="curve"/>
			<point x="214" y="47"/>
			<point x="183" y="73"/>
			<point x="183" y="138" type="curve" smooth="yes"/>
			<point x="183" y="654" type="line"/>
			<point x="123" y="640" type="line"/>
		</contour>
	</outline>
</glyph>
<glyph name="x" format="2">
	<advance width="500"/>
	<unicode hex="0078"/>
	<outline>
		<contour>
			<point x="35" y="0" type="line"/>
			<point x="103" y="0" type="line"/>
			<point x="256" y="227" type="line"/>
			<point x="274" y="249" type="line"/>
			<point x="455" y="510" type="line"/>
			<point x="387" y="510" type="line"/>
			<point x="244" y="298" type="line"/>
			<point x="226" y="276" type="line"/>
		</contour>
		<contour>
			<point x="45" y="510" type="line"/>
			<point x="232" y="238" type="line"/>
			<point x="236" y="232" type="line"/>
			<point x="395" y="0" type="line"/>
			<point x="465" y="0" type="line"/>
			<point x="272" y="281" type="line"/>
			<point x="268" y="287" type="line"/>
			<point x="115" y="510" type="line"/>
		</contour>
	</outline>
</glyph>
<glyph name="bar" format="2">
	<advance width="276"/>
	<unicode hex="007C"/>
	<outline>
		<contour>
			<point x="110" y="-215" type="line"/>
			<point x="166" y="-215" type="line"/>
			<point x="166" y="720" type="line"/>
			<point x="110" y="720" type="line"/>
		</contour>
	</outline>
</glyph>
<glyph name="cent" format="2">
	<advance width="600"/>
	<unicode hex="00A2"/>
	<outline>
		<contour>
			<point x="290" y="-100" type="line"/>
			<point x="346" y="-100" type="line"/>
			<point x="346" y="280" type="line"/>
			<point x="290" y="280" type="line"/>
		</contour>
		<contour>
			<point x="290" y="280" type="line"/>
			<point x="346" y="280" type="line"/>
			<point x="346" y="695" type="line"/>
			<point x="290" y="695" type="line"/>
		</contour>
		<contour>
			<point x="112" y="295" type="curve"/>
			<point x="112" y="122"/>
			<point x="209" y="32"/>
			<point x="331" y="32" type="curve"/>
			<point x="398" y="32"/>
			<point x="456" y="64"/>
			<point x="495" y="117" type="curve"/>
			<point x="448" y="150" type="line"/>
			<point x="421" y="109"/>
			<point x="378" y="88"/>
			<point x="329" y="88" type="curve"/>
			<point x="239" y="88"/>
			<point x="173" y="152"/>
			<point x="173" y="295" type="curve"/>
			<point x="173" y="435"/>
			<point x="238" y="502"/>
			<point x="329" y="502" type="curve"/>
			<point x="377" y="502"/>
			<point x="419" y="483"/>
			<point x="447" y="442" type="curve"/>
			<point x="494" y="475" type="line"/>
			<point x="455" y="529"/>
			<point x="397" y="558"/>
			<point x="331" y="558" type="curve"/>
			<point x="209" y="558"/>
			<point x="112" y="465"/>
		</contour>
	</outline>
</glyph>
<glyph name="plusminus" format="2">
	<advance width="600"/>
	<unicode hex="00B1"/>
	<outline>
		<contour>
			<point x="79" y="70" type="line"/>
			<point x="521" y="70" type="line"/>
			<point x="521" y="124" type="line"/>
			<point x="79" y="124" type="line"/>
		</contour>
		<contour>
			<point x="79" y="283" type="line"/>
			<point x="521" y="283" type="line"/>
			<point x="521" y="337" type="line"/>
			<point x="79" y="337" type="line"/>
		</contour>
		<contour>
			<point x="272" y="70" type="line"/>
			<point x="328" y="70" type="line"/>
			<point x="328" y="510" type="line"/>
			<point x="272" y="510" type="line"/>
		</contour>
	</outline>
</glyph>
<glyph name="onequarter" format="2">
	<advance width="725"/>
	<unicode hex="00BC"/>
	<outline>
		<component base="onesuperior" xOffset="-68"/>
		<component base="fraction" xOffset="184"/>
		<contour>
			<point x="414" y="127" type="line"/>
			<point x="445" y="91" type="line"/>
			<point x="642" y="400" type="line"/>
			<point x="588" y="400" type="line"/>
		</contour>
		<contour>
			<point x="414" y="91" type="line"/>
			<point x="715" y="91" type="line"/>
			<point x="715" y="137" type="line"/>
			<point x="454" y="137" type="line"/>
			<point x="414" y="127" type="line"/>
		</contour>
		<contour>
			<point x="602" y="0" type="line"/>
			<point x="655" y="0" type="line"/>
			<point x="655" y="400" type="line"/>
			<point x="602" y="400" type="line"/>
		</contour>
	</outline>
</glyph>
<glyph name="AE" format="2">
	<advance width="901"/>
	<unicode hex="00C6"/>
	<anchor x="520" y="690" name="top"/>
	<outline>
		<contour>
			<point x="10" y="0" type="line"/>
			<point x="72" y="0" type="line"/>
			<point x="351" y="645" type="line"/>
			<point x="349" y="690" type="line"/>
			<point x="309" y="690" type="line"/>
		</contour>
		<contour>
			<point x="147" y="226" type="line"/>
			<point x="440" y="226" type="line"/>
			<point x="440" y="280" type="line"/>
			<point x="147" y="280" type="line"/>
		</contour>
		<contour>
			<point x="415" y="0" type="line"/>
			<point x="477" y="0" type="line"/>
			<point x="477" y="690" type="line"/>
			<point x="415" y="690" type="line"/>
		</contour>
		<contour>
			<point x="445" y="0" type="line"/>
			<point x="831" y="0" type="line"/>
			<point x="831" y="54" type="line"/>
			<point x="445" y="54" type="line"/>
		</contour>
		<contour>
			<point x="445" y="322" type="line"/>
			<point x="780" y="322" type="line"/>
			<point x="780" y="374" type="line"/>
			<point x="445" y="374" type="line"/>
		</contour>
		<contour>
			<point x="340" y="636" type="line"/>
			<point x="826" y="636" type="line"/>
			<point x="826" y="690" type="line"/>
			<point x="340" y="690" type="line"/>
		</contour>
	</outline>
</glyph>
<glyph name="kra" format="2">
	<advance width="498"/>
	<unicode hex="0138"/>
	<outline>
		<contour>
			<point x="95" y="0" type="line"/>
			<point x="155" y="0" type="line"/>
			<point x="155" y="510" type="line"/>
			<point x="95" y="510" type="line"/>
		</contour>
		<contour>
			<point x="149" y="186" type="line"/>
			<point x="466" y="510" type="line"/>
			<point x="391" y="510" type="line"/>
			<point x="149" y="259" type="line"/>
		</contour>
		<contour>
			<point x="220" y="279" type="line"/>
			<point x="411" y="0" type="line"/>
			<point x="483" y="0" type="line"/>
			<point x="260" y="318" type="line"/>
		</contour>
	</outline>
</glyph>
<glyph name="Tbar" format="2">
	<advance width="574"/>
	<unicode hex="0166"/>
	<outline>
		<contour>
			<point x="40" y="636" type="line"/>
			<point x="534" y="636" type="line"/>
			<point x="534" y="690" type="line"/>
			<point x="40" y="690" type="line"/>
		</contour>
		<contour>
			<point x="256" y="0" type="line"/>
			<point x="318" y="0" type="line"/>
			<point x="318" y="690" type="line"/>
			<point x="256" y="690" type="line"/>
		</contour>
		<contour>
			<point x="106" y="306" type="line"/>
			<point x="468" y="306" type="line"/>
			<point x="468" y="360" type="line"/>
			<point x="106" y="360" type="line"/>
		</contour>
	</outline>
</glyph>
<glyph name="Schwa" format="2">
	<advance width="726"/>
	<unicode hex="018F"/>
	<outline>
		<contour>
			<point x="70" y="325" type="curve" smooth="yes"/>
			<point x="70" y="112"/>
			<point x="203" y="-10"/>
			<point x="364" y="-10" type="curve" smooth="yes"/>
			<point x="525" y="-10"/>
			<point x="656" y="112"/>
			<point x="656" y="345" type="curve" smooth="yes"/>
			<point x="656" y="578"/>
			<point x="525" y="700"/>
			<point x="344" y="700" type="curve" smooth="yes"/>
			<point x="251" y="700"/>
			<point x="174" y="670"/>
			<point x="112" y="626" type="curve"/>
			<point x="143" y="574" type="line"/>
			<point x="194" y="610"/>
			<point x="262" y="640"/>
			<point x="340" y="640" type="curve" smooth="yes"/>
			<point x="498" y="640"/>
			<point x="592" y="541"/>
			<point x="592" y="345" type="curve" smooth="yes"/>
			<point x="592" y="149"/>
			<point x="497" y="50"/>
			<point x="364" y="50" type="curve" smooth="yes"/>
			<point x="230" y="50"/>
			<point x="131" y="149"/>
			<point x="131" y="334" type="curve"/>
			<point x="116" y="300" type="line"/>
			<point x="626" y="300" type="line"/>
			<point x="626" y="360" type="line"/>
			<point x="72" y="360" type="line"/>
			<point x="71" y="350"/>
			<point x="70" y="335"/>
		</contour>
	</outline>
</glyph>
<glyph name="circumflex" format="2">
	<advance width="600"/>
	<unicode hex="02C6"/>
	<anchor x="300" y="510" name="_top"/>
	<anchor x="300" y="712" name="top"/>
	<outline>
		<contour>
			<point x="175" y="585" type="line"/>
			<point x="230" y="585" type="line"/>
			<point x="331" y="735" type="line"/>
			<point x="264" y="735" type="line"/>
		</contour>
		<contour>
			<point x="269" y="735" type="line"/>
			<point x="370" y="585" type="line"/>
			<point x="425" y="585" type="line"/>
			<point x="336" y="735" type="line"/>
		</contour>
	</outline>
</glyph>
<glyph name="caron" format="2">
	<advance width="600"/>
	<unicode hex="02C7"/>
	<anchor x="300" y="510" name="_top"/>
	<outline>
		<contour>
			<point x="175" y="735" type="line"/>
			<point x="264" y="585" type="line"/>
			<point x="331" y="585" type="line"/>
			<point x="230" y="735" type="line"/>
		</contour>
		<contour>
			<point x="269" y="585" type="line"/>
			<point x="336" y="585" type="line"/>
			<point x="425" y="735" type="line"/>
			<point x="370" y="735" type="line"/>
		</contour>
	</outline>
</glyph>
<glyph name="tildecomb" format="2">
	<advance width="0"/>
	<unicode hex="0303"/>
	<anchor x="0" y="510" name="_top"/>
	<anchor x="0" y="671" name="top"/>
	<outline>
		<contour>
			<point x="-136" y="592" type="curve"/>
			<point x="-92" y="592" type="line"/>
			<point x="-86" y="637"/>
			<point x="-72" y="653"/>
			<point x="-54" y="653" type="curve" smooth="yes"/>
			<point x="-20" y="653"/>
			<point x="-2" y="587"/>
			<point x="56" y="587" type="curve"/>
			<point x="97" y="587"/>
			<point x="128" y="627"/>
			<point x="136" y="697" type="curve"/>
			<point x="92" y="697" type="line"/>
			<point x="86" y="652"/>
			<point x="72" y="636"/>
			<point x="55" y="636" type="curve" smooth="yes"/>
			<point x="19" y="636"/>
			<point x="2" y="702"/>
			<point x="-56" y="702" type="curve"/>
			<point x="-98" y="702"/>
			<point x="-128" y="662"/>
		</contour>
	</outline>
</glyph>
<glyph name="dieresiscomb" format="2">
	<advance width="0"/>
	<unicode hex="0308"/>
	<anchor x="0" y="510" name="_top"/>
	<anchor x="0" y="640" name="top"/>
	<outline>
		<contour>
			<point x="-137" y="625" type="curve" smooth="yes"/>
			<point x="-137" y="601"/>
			<point x="-118" y="583"/>
			<point x="-95" y="583" type="curve" smooth="yes"/>
			<point x="-71" y="583"/>
			<point x="-53" y="601"/>
			<point x="-53" y="625" type="curve" smooth="yes"/>
			<point x="-53" y="650"/>
			<point x="-71" y="668"/>
			<point x="-95" y="668" type="curve" smooth="yes"/>
			<point x="-118" y="668"/>
			<point x="-137" y="650"/>
		</contour>
		<contour>
			<point x="53" y="625" type="curve" smooth="yes"/>
			<point x="53" y="601"/>
			<point x="72" y="583"/>
			<point x="95" y="583" type="curve" smooth="yes"/>
			<point x="119" y="583"/>
			<point x="137" y="601"/>
			<point x="137" y="625" type="curve" smooth="yes"/>
			<point x="137" y="650"/>
			<point x="119" y="668"/>
			<point x="95" y="668" type="curve" smooth="yes"/>
			<point x="72" y="668"/>
			<point x="53" y="650"/>
		</contour>
	</outline>
</glyph>
<glyph name="hookabovecomb" format="2">
	<advance width="0"/>
	<unicode hex="0309"/>
	<anchor x="0" y="510" name="_top"/>
	<outline>
		<contour>
			<point x="-24" y="567" type="line"/>
			<point x="20" y="567" type="line"/>
			<point x="20" y="596" type="line"/>
			<point x="50" y="603"/>
			<point x="72" y="626"/>
			<point x="72" y="665" type="curve" smooth="yes"/>
			<point x="72" y="706"/>
			<point x="40" y="730"/>
			<point x="-24" y="730" type="curve"/>
			<point x="-24" y="689" type="line"/>
			<point x="13" y="689"/>
			<point x="26" y="679"/>
			<point x="26" y="661" type="curve" smooth="yes"/>
			<point x="26" y="645"/>
			<point x="17" y="630"/>
			<point x="-24" y="630" type="curve"/>
		</contour>
	</outline>
</glyph>
<glyph name="dblgravecomb" format="2">
	<advance width="0"/>
	<unicode hex="030F"/>
	<anchor x="0" y="510" name="_top"/>
	<outline>
		<contour>
			<point x="-170" y="715" type="line"/>
			<point x="-72" y="565" type="line"/>
			<point x="-23" y="565" type="line"/>
			<point x="-108" y="715" type="line"/>
		</contour>
		<contour>
			<point x="-59" y="715" type="line"/>
			<point x="38" y="565" type="line"/>
			<point x="88" y="565" type="line"/>
			<point x="3" y="715" type="line"/>
		</contour>
	</outline>
</glyph>
<glyph name="horncomb" format="2">
	<advance width="0"/>
	<unicode hex="031B"/>
	<anchor x="0" y="690" name="_horn"/>
	<outline>
		<contour>
			<point x="0" y="645" type="line"/>
			<point x="88" y="645"/>
			<point x="139" y="700"/>
			<point x="139" y="787" type="curve"/>
			<point x="79" y="787" type="line"/>
			<point x="79" y="721"/>
			<point x="35" y="690"/>
			<point x="0" y="690" type="curve"/>
		</contour>
	</outline>
</glyph>
<glyph name="dotbelowcomb" format="2">
	<advance width="0"/>
	<unicode hex="0323"/>
	<anchor x="0" y="0" name="_bottom"/>
	<outline>
		<contour>
			<point x="-43" y="-161" type="curve" smooth="yes"/>
			<point x="-43" y="-185"/>
			<point x="-24" y="-205"/>
			<point x="0" y="-205" type="curve" smooth="yes"/>
			<point x="25" y="-205"/>
			<point x="43" y="-185"/>
			<point x="43" y="-161" type="curve" smooth="yes"/>
			<point x="43" y="-136"/>
			<point x="25" y="-116"/>
			<point x="0" y="-116" type="curve" smooth="yes"/>
			<point x="-24" y="-116"/>
			<point x="-43" y="-136"/>
		</contour>
	</outline>
</glyph>
<glyph name="ogonekcomb" format="2">
	<advance width="0"/>
	<unicode hex="0328"/>
	<anchor x="0" y="0" name="_ogonek"/>
	<outline>
		<contour>
			<point x="-110" y="-108" type="curve" smooth="yes"/>
			<point x="-110" y="-160"/>
			<point x="-70" y="-193"/>
			<point x="-20" y="-193" type="curve" smooth="yes"/>
			<point x="12" y="-193"/>
			<point x="36" y="-184"/>
			<point x="60" y="-170" type="curve"/>
			<point x="44" y="-132" type="line"/>
			<point x="28" y="-141"/>
			<point x="8" y="-149"/>
			<point x="-15" y="-149" type="curve" smooth="yes"/>
			<point x="-45" y="-149"/>
			<point x="-64" y="-130"/>
			<point x="-64" y="-100" type="curve" smooth="yes"/>
			<point x="-64" y="-64"/>
			<point x="-30" y="-30"/>
			<point x="15" y="0" type="curve"/>
			<point x="-40" y="0" type="line"/>
			<point x="-76" y="-20"/>
			<point x="-110" y="-62"/>
		</contour>
	</outline>
</glyph>
<glyph name="daggerdbl" format="2">
	<advance width="416"/>
	<unicode hex="2021"/>
	<outline>
		<contour>
			<point x="180" y="-185" type="line"/>
			<point x="236" y="-185" type="line"/>
			<point x="236" y="720" type="line"/>
			<point x="180" y="720" type="line"/>
		</contour>
		<contour>
			<point x="30" y="460" type="line"/>
			<point x="386" y="460" type="line"/>
			<point x="386" y="510" type="line"/>
			<point x="30" y="510" type="line"/>
		</contour>
		<contour>
			<point x="30" y="25" type="line"/>
			<point x="386" y="25" type="line"/>
			<point x="386" y="75" type="line"/>
			<point x="30" y="75" type="line"/>
		</contour>
	</outline>
</glyph>
<glyph name="franc" format="2">
	<advance width="558"/>
	<unicode hex="20A3"/>
	<outline>
		<component base="F"/>
		<contour>
			<point x="40" y="157" type="line"/>
			<point x="272" y="157" type="line"/>
			<point x="272" y="207" type="line"/>
			<point x="40" y="207" type="line"/>
		</contour>
	</outline>
</glyph>
<glyph name="peso" format="2">
	<advance width="616"/>
	<unicode hex="20B1"/>
	<outline>
		<component base="P"/>
		<contour>
			<point x="10" y="398" type="line"/>
			<point x="606" y="398" type="line"/>
			<point x="606" y="448" type="line"/>
			<point x="10" y="448" type="line"/>
		</contour>
		<contour>
			<point x="10" y="498" type="line"/>
			<point x="606" y="498" type="line"/>
			<point x="606" y="548" type="line"/>
			<point x="10" y="548" type="line"/>
		</contour>
	</outline>
</glyph>
<glyph name="liraTurkish" format="2">
	<advance width="542"/>
	<unicode hex="20BA"/>
	<outline>
		<contour>
			<point x="110" y="0" type="line"/>
			<point x="172" y="0" type="line"/>
			<point x="172" y="690" type="line"/>
			<point x="110" y="690" type="line"/>
		</contour>
		<contour>
			<point x="161" y="0" type="line"/>
			<point x="338" y="0"/>
			<point x="421" y="111"/>
			<point x="421" y="224" type="curve"/>
			<point x="367" y="224" type="line"/>
			<point x="367" y="136"/>
			<point x="308" y="60"/>
			<point x="161" y="60" type="curve"/>
		</contour>
		<contour>
			<point x="10" y="266" type="line"/>
			<point x="300" y="316" type="line"/>
			<point x="300" y="370" type="line"/>
			<point x="10" y="320" type="line"/>
		</contour>
		<contour>
			<point x="10" y="406" type="line"/>
			<point x="300" y="456" type="line"/>
			<point x="300" y="510" type="line"/>
			<point x="10" y="460" type="line"/>
		</contour>
	</outline>
</glyph>
<glyph name="caron.alt" format="2">
	<advance width="600"/>
	<anchor x="300" y="720" name="_caron.alt"/>
	<outline>
		<contour>
			<point x="250" y="550" type="line"/>
			<point x="300" y="550" type="line"/>
			<point x="350" y="728" type="line"/>
			<point x="290" y="728" type="line"/>
		</contour>
	</outline>
</glyph>
